<svg xmlns="http://www.w3.org/2000/svg" width="80" height="80" viewBox="0 0 80 80">
  <g id="Grupo_6831" data-name="Grupo 6831" transform="translate(-275 -3759)">
    <circle id="Elipse_260" data-name="Elipse 260" cx="40" cy="40" r="40" transform="translate(275 3759)" fill="#e0e3f1"/>
    <path id="Trazado_4872" data-name="Trazado 4872" d="M0,0H48V48H0Z" transform="translate(292 3775)" fill="none"/>
    <g id="Shopicon" transform="translate(292 3775)">
      <circle id="Elipse_148" data-name="Elipse 148" cx="2" cy="2" r="2" transform="translate(15.945 27.004)"/>
      <circle id="Elipse_149" data-name="Elipse 149" cx="2" cy="2" r="2" transform="translate(27.945 27.004)"/>
      <path id="Trazado_4873" data-name="Trazado 4873" d="M30.964,20.845c2.3-.734,3.98-3.915,3.98-7.84,0-4.486-2.2-8-5-8s-5,3.514-5,8a10.245,10.245,0,0,0,1.9,6.307,13.813,13.813,0,0,0-5.792,0,10.248,10.248,0,0,0,1.9-6.307c0-4.486-2.2-8-5-8s-5,3.514-5,8c0,3.926,1.682,7.106,3.98,7.84-4.791,2.629-7.98,7.646-7.98,12.16,0,6.168,5.748,10,15,10s15-3.832,15-10C38.945,28.491,35.755,23.475,30.964,20.845ZM29.945,7.005c1.419,0,3,2.464,3,6s-1.581,6-3,6-3-2.464-3-6S28.526,7.005,29.945,7.005Zm-15,6c0-3.536,1.581-6,3-6s3,2.464,3,6-1.581,6-3,6S14.945,16.541,14.945,13.005Zm10,27.979V35.005h2v-2h-2V33h-2v.005h-2v2h2v5.979c-5.976-.215-12-2.392-12-7.979,0-5.436,5.8-12,13-12s13,6.564,13,12C36.945,38.591,30.921,40.769,24.945,40.984Z"/>
    </g>
  </g>
</svg>
