<svg xmlns="http://www.w3.org/2000/svg" width="80" height="80" viewBox="0 0 80 80">
  <g id="Grupo_6833" data-name="Grupo 6833" transform="translate(-1011 -3759)">
    <circle id="Elipse_262" data-name="Elipse 262" cx="40" cy="40" r="40" transform="translate(1011 3759)" fill="#e0e3f1"/>
    <g id="Shopicons_Light_Payment" transform="translate(1027 3775)">
      <path id="Trazado_5146" data-name="Trazado 5146" d="M0,0H48V48H0Z" fill="none"/>
      <g id="Shopicon">
        <path id="Trazado_5147" data-name="Trazado 5147" d="M26,4.045H10a4.012,4.012,0,0,0-4,4V32a4.012,4.012,0,0,0,4,4h5l.1.649A7.246,7.246,0,0,0,22,43H41V27c0-3.355-1.354-4.645-1.463-4.737L32.969,15.7,30.3,13.031l-.3-.305V8.045A4.012,4.012,0,0,0,26,4.045Zm2,4v2.9a5,5,0,0,0-6.137,7.794l3.349,3.349,1.7,1.7L28,24.874V32a2,2,0,0,1-2,2H19V6.045h7A2,2,0,0,1,28,8.045ZM8,32V8.045a2,2,0,0,1,2-2h3V34H10A2,2,0,0,1,8,32Zm31-5V41H22a5.238,5.238,0,0,1-4.921-4.649L17.026,36H26a4.012,4.012,0,0,0,4-4V26.874l2.12,2.12,1.414-1.414L30,24.046V24h-.046L25,19.046l-1.723-1.723a3.008,3.008,0,0,1,0-4.246,3.08,3.08,0,0,1,4.214-.025c.01.01.022.016.032.025L33,18.554,38.147,23.7C38.155,23.708,39,24.58,39,27Z"/>
      </g>
    </g>
  </g>
</svg>
