<svg xmlns="http://www.w3.org/2000/svg" width="50" height="50" viewBox="0 0 50 50">
  <g id="Grupo_6833" data-name="Grupo 6833" transform="translate(-205 -5120)">
    <rect id="Rectángulo_2768" data-name="Rectángulo 2768" width="50" height="50" rx="5" transform="translate(205 5120)" fill="#fff"/>
    <g id="Icon_feather-instagram" data-name="Icon feather-instagram" transform="translate(217 5132)">
      <path id="Trazado_6628" data-name="Trazado 6628" d="M9.305,3h12.61A6.305,6.305,0,0,1,28.22,9.305v12.61a6.305,6.305,0,0,1-6.305,6.305H9.305A6.305,6.305,0,0,1,3,21.915V9.305A6.305,6.305,0,0,1,9.305,3Z" transform="translate(-3 -3)" fill="none" stroke="#000" stroke-linecap="round" stroke-linejoin="round" stroke-width="2"/>
      <path id="Trazado_6629" data-name="Trazado 6629" d="M22.1,16.239a5.044,5.044,0,1,1-4.25-4.25,5.044,5.044,0,0,1,4.25,4.25Z" transform="translate(-4.444 -4.424)" fill="none" stroke="#000" stroke-linecap="round" stroke-linejoin="round" stroke-width="2"/>
      <path id="Trazado_6630" data-name="Trazado 6630" d="M26.25,9.75h0" transform="translate(-6.704 -4.075)" fill="none" stroke="#000" stroke-linecap="round" stroke-linejoin="round" stroke-width="2"/>
    </g>
  </g>
</svg>
